<?xml version="1.0" standalone="no"?>
<!DOCTYPE svg PUBLIC "-//W3C//DTD SVG 20010904//EN"
 "http://www.w3.org/TR/2001/REC-SVG-20010904/DTD/svg10.dtd">
<svg version="1.0" xmlns="http://www.w3.org/2000/svg"
 width="600.000000pt" height="600.000000pt" viewBox="0 0 600.000000 600.000000"
 preserveAspectRatio="xMidYMid meet">

<g transform="translate(0.000000,600.000000) scale(0.100000,-0.100000)"
fill="#000000" stroke="none">
<path d="M1110 3594 c-510 -38 -859 -204 -787 -375 18 -44 69 -93 132 -130 63
-36 76 -37 43 -1 -36 38 -48 65 -48 107 0 163 302 296 765 336 229 20 558 -3
750 -51 39 -10 71 -17 73 -15 7 6 -114 47 -207 70 -53 13 -148 31 -211 40
-115 16 -406 26 -510 19z"/>
<path d="M1275 3524 c-385 -30 -648 -107 -766 -225 -104 -104 -46 -214 166
-312 l40 -18 -36 38 c-47 49 -59 73 -59 118 0 180 368 323 880 342 199 7 462
-15 614 -52 12 -2 6 2 -12 10 -54 25 -219 63 -342 79 -118 16 -396 27 -485 20z"/>
<path d="M1265 3278 c-8 -23 -165 -834 -165 -851 0 -16 27 -17 329 -17 363 0
437 8 536 57 63 30 133 102 142 145 8 38 17 35 38 -12 54 -120 221 -194 440
-194 246 0 430 90 500 245 23 53 27 71 23 134 -3 60 -9 81 -35 124 l-32 51
140 0 141 0 -5 -22 c-3 -13 -26 -129 -51 -258 -25 -129 -48 -243 -50 -252 -4
-16 6 -18 93 -18 l97 0 54 275 54 275 149 0 150 0 -43 -46 c-146 -158 -102
-360 99 -453 224 -103 538 -67 706 82 82 71 123 202 95 302 -18 64 -86 137
-164 175 -168 83 -451 74 -625 -21 -30 -16 -56 -27 -59 -25 -2 3 0 25 6 50
l10 46 -394 0 c-436 0 -394 7 -409 -67 -4 -18 -8 -33 -10 -33 -2 0 -20 11 -40
25 -194 131 -578 103 -758 -55 -51 -45 -107 -145 -108 -194 0 -28 -1 -29 -12
-12 -41 67 -104 113 -192 141 -16 5 -11 11 32 35 94 54 137 133 114 210 -24
81 -112 137 -253 160 -95 15 -537 13 -543 -2z m444 -137 c59 -12 95 -41 99
-79 8 -81 -53 -111 -225 -112 -70 0 -123 4 -123 9 0 6 7 40 15 78 9 37 18 78
20 91 5 21 10 22 88 22 45 -1 102 -5 126 -9z m1042 -197 c102 -30 159 -93 159
-177 0 -181 -268 -305 -468 -217 -85 38 -122 88 -122 165 0 167 228 288 431
229z m1610 -16 c181 -83 147 -299 -60 -380 -42 -16 -79 -22 -146 -22 -109 -1
-165 18 -217 72 -122 125 -24 302 197 356 52 13 172 -1 226 -26z m-2581 -152
c99 -51 92 -149 -14 -197 -35 -16 -67 -19 -213 -19 -95 0 -173 2 -173 5 0 15
42 203 49 220 8 19 15 20 162 15 122 -5 161 -10 189 -24z"/>
<path d="M4650 3066 c0 -2 58 -73 130 -157 71 -85 129 -157 127 -161 -1 -4
-92 -79 -202 -168 -110 -89 -202 -164 -204 -166 -2 -2 49 -4 115 -4 l119 0
139 111 c113 91 140 109 150 98 7 -8 50 -58 95 -111 l83 -98 106 0 105 0 -20
23 c-24 27 -223 265 -241 288 -10 14 12 36 166 161 97 80 188 155 202 167 l25
20 -120 0 -120 0 -127 -104 c-70 -58 -131 -105 -136 -105 -5 0 -48 47 -97 105
l-88 105 -103 0 c-57 0 -104 -2 -104 -4z"/>
<path d="M5575 3045 c-14 -13 -25 -31 -25 -39 0 -55 59 -98 102 -75 53 28 63
75 23 114 -13 14 -36 25 -50 25 -14 0 -37 -11 -50 -25z m95 -5 c11 -11 20 -29
20 -40 0 -25 -42 -70 -65 -70 -23 0 -65 45 -65 70 0 28 35 60 65 60 14 0 34
-9 45 -20z"/>
<path d="M5591 2993 c1 -21 3 -30 6 -20 6 21 22 22 37 1 10 -13 12 -10 13 20
1 20 -3 36 -8 36 -4 0 -6 -7 -3 -15 4 -11 0 -15 -16 -15 -16 0 -20 4 -16 15 3
8 1 15 -4 15 -6 0 -9 -17 -9 -37z"/>
</g>
</svg>
