<?xml version="1.0" standalone="no"?>
<!DOCTYPE svg PUBLIC "-//W3C//DTD SVG 20010904//EN"
 "http://www.w3.org/TR/2001/REC-SVG-20010904/DTD/svg10.dtd">
<svg version="1.0" xmlns="http://www.w3.org/2000/svg"
 width="285.000000pt" height="178.000000pt" viewBox="0 0 285.000000 178.000000"
 preserveAspectRatio="xMidYMid meet">

<g transform="translate(0.000000,178.000000) scale(0.100000,-0.100000)"
fill="#000000" stroke="none">
<path d="M667 1210 c-119 -75 -219 -291 -242 -520 -10 -110 -14 -123 -32 -108
-42 34 -48 74 -49 309 0 124 -4 231 -8 237 -11 17 -21 15 -54 -13 -69 -58
-141 -206 -187 -386 -9 -35 -25 -79 -36 -97 -24 -42 -25 -42 11 -42 57 0 74
31 103 183 24 131 77 277 98 277 5 0 9 -87 9 -193 0 -311 32 -385 145 -331 42
19 65 67 65 131 0 63 26 224 46 288 29 88 87 187 142 242 61 60 58 67 -11 23z"/>
<path d="M2456 1145 c-9 -9 -16 -32 -16 -51 0 -27 4 -34 20 -34 35 0 54 66 26
89 -11 9 -18 8 -30 -4z"/>
<path d="M2805 1025 c0 -13 3 -21 8 -18 4 2 7 10 7 18 0 8 -3 16 -7 18 -5 3
-8 -5 -8 -18z"/>
<path d="M704 1001 c-45 -27 -92 -88 -109 -142 -11 -31 -23 -49 -36 -52 -22
-6 -17 -27 5 -27 7 0 18 -11 24 -25 28 -62 156 -60 240 2 45 33 32 42 -22 15
-24 -12 -63 -24 -87 -27 -77 -10 -128 37 -64 58 77 25 158 118 153 177 -3 32
-6 35 -38 38 -21 1 -47 -5 -66 -17z m76 -34 c0 -25 -53 -89 -98 -118 -25 -16
-47 -27 -50 -25 -6 7 52 88 89 124 34 33 59 41 59 19z"/>
<path d="M957 1000 c-42 -33 -87 -135 -87 -196 0 -45 4 -56 26 -73 34 -27 80
-27 123 0 30 18 35 19 50 5 25 -23 56 -20 88 8 28 24 27 50 -1 27 -8 -7 -25
-11 -38 -9 -20 3 -23 8 -21 45 1 24 18 78 37 122 41 89 41 91 22 91 -18 0 -46
-48 -81 -140 -15 -41 -34 -82 -42 -91 -18 -21 -53 -28 -81 -18 -41 15 -24 112
34 198 13 20 24 39 24 43 0 15 -27 8 -53 -12z"/>
<path d="M1284 1012 c-19 -12 -32 -45 -58 -149 -30 -119 -32 -141 -9 -150 21
-8 53 31 53 66 0 63 87 173 168 213 34 16 42 24 29 26 -38 8 -85 -9 -127 -45
-32 -28 -41 -32 -37 -17 3 10 8 29 12 42 7 23 -8 30 -31 14z"/>
<path d="M1522 1003 c-86 -42 -152 -151 -138 -228 8 -40 23 -54 70 -62 28 -4
44 0 76 21 39 25 40 25 50 6 16 -30 70 -27 101 6 l24 27 -22 -7 c-13 -3 -32
-9 -43 -12 -27 -8 -36 18 -19 58 7 17 34 67 61 111 26 44 48 84 48 89 0 14
-37 9 -50 -7 -12 -14 -15 -14 -30 0 -22 20 -86 19 -128 -2z m89 -33 c55 -30
-29 -181 -108 -196 -41 -8 -63 9 -63 48 0 56 45 114 110 142 43 19 37 18 61 6z"/>
<path d="M1951 983 c-20 -21 -44 -49 -54 -63 l-17 -25 6 37 c5 28 1 41 -15 57
-25 25 -42 26 -85 6 -37 -18 -71 -62 -39 -52 60 19 63 19 69 3 3 -8 -2 -51
-11 -93 -28 -128 -29 -143 -11 -143 10 0 31 30 55 78 22 42 51 92 64 110 30
40 87 83 99 76 11 -7 0 -72 -29 -168 -39 -135 6 -128 62 9 42 101 133 187 151
141 3 -7 -4 -58 -14 -112 -12 -64 -16 -105 -10 -116 18 -36 103 -17 167 37 31
27 33 27 27 7 -4 -12 -4 -31 -1 -42 8 -26 64 -27 96 -1 28 23 20 38 -10 21
-12 -6 -26 -8 -31 -5 -12 7 -7 30 26 138 28 91 30 125 8 134 -22 8 -35 -9 -55
-71 -25 -83 -63 -140 -116 -175 -78 -52 -87 -34 -48 103 29 103 30 139 2 144
-35 7 -66 -8 -116 -57 l-51 -50 0 43 c0 49 -13 66 -53 66 -21 0 -40 -11 -66
-37z"/>
<path d="M2566 999 c-19 -15 -26 -30 -26 -55 0 -34 3 -36 74 -69 95 -43 112
-79 54 -116 -33 -20 -84 -22 -148 -3 l-25 7 21 -23 c14 -14 38 -24 67 -27 87
-10 161 36 161 102 0 44 -25 72 -91 101 -61 27 -71 40 -49 62 14 14 20 15 49
3 58 -23 67 -24 67 -8 0 44 -107 63 -154 26z"/>
</g>
</svg>
