<?xml version="1.0" standalone="no"?>
<!DOCTYPE svg PUBLIC "-//W3C//DTD SVG 20010904//EN"
 "http://www.w3.org/TR/2001/REC-SVG-20010904/DTD/svg10.dtd">
<svg version="1.0" xmlns="http://www.w3.org/2000/svg"
 width="330.000000pt" height="152.000000pt" viewBox="0 0 330.000000 152.000000"
 preserveAspectRatio="xMidYMid meet">

<g transform="translate(0.000000,152.000000) scale(0.100000,-0.100000)"
fill="#000000" stroke="none">
<path d="M304 927 c-2 -7 -3 -60 -2 -118 3 -96 4 -104 23 -104 16 0 21 8 25
40 7 53 28 52 58 -2 18 -32 30 -43 48 -43 29 0 30 6 4 45 -24 36 -25 58 -5 75
31 26 14 84 -32 108 -30 17 -112 15 -119 -1z m91 -37 c40 -15 31 -54 -12 -58
-30 -3 -33 -1 -33 26 0 25 7 42 16 42 1 0 15 -5 29 -10z"/>
<path d="M635 918 c-3 -13 -5 -66 -3 -118 l3 -95 64 -3 c68 -3 86 4 75 31 -4
12 -18 17 -51 17 -40 0 -44 2 -41 23 2 18 10 23 41 25 28 2 37 8 37 22 0 14
-9 20 -37 22 -28 2 -39 8 -41 22 -5 24 14 36 56 36 25 0 32 4 32 20 0 18 -7
20 -65 20 -59 0 -65 -2 -70 -22z"/>
<path d="M910 928 c0 -18 69 -200 82 -215 6 -7 19 -13 29 -13 26 0 24 10 -24
130 -34 85 -47 106 -65 108 -13 2 -22 -2 -22 -10z"/>
<path d="M1066 870 c-21 -58 -24 -74 -14 -95 6 -14 14 -25 18 -25 10 0 70 177
62 184 -3 3 -13 6 -23 6 -12 0 -24 -21 -43 -70z"/>
<path d="M1292 823 c3 -110 4 -118 23 -118 19 0 20 7 20 115 0 112 -1 115 -23
118 -23 3 -23 3 -20 -115z"/>
<path d="M1493 925 c-8 -22 4 -30 50 -34 4 -1 7 -44 7 -96 0 -88 1 -95 20 -95
18 0 20 8 22 98 l3 97 28 3 c19 2 27 9 27 23 0 17 -8 19 -75 19 -59 0 -77 -3
-82 -15z"/>
<path d="M1808 930 c-1 -5 -2 -59 0 -120 3 -101 5 -110 23 -110 16 0 19 7 19
39 0 65 31 66 65 3 12 -23 29 -38 43 -40 27 -4 28 7 2 51 l-21 35 21 35 c19
32 20 39 8 64 -7 15 -24 33 -38 40 -30 15 -117 17 -122 3z m100 -46 c18 -12
20 -19 11 -35 -15 -29 -63 -22 -67 10 -2 13 2 28 10 32 18 12 20 11 46 -7z"/>
<path d="M2220 928 c0 -27 78 -213 93 -222 37 -23 37 9 1 104 -19 52 -40 102
-45 112 -11 20 -49 25 -49 6z"/>
<path d="M2500 820 c0 -113 1 -120 20 -120 18 0 20 7 20 71 0 63 2 70 15 59 9
-7 30 -37 48 -67 32 -53 61 -73 78 -56 6 6 8 59 7 119 -3 104 -4 109 -25 112
-21 3 -22 -1 -25 -70 l-3 -73 -49 73 c-31 46 -56 72 -67 72 -17 0 -19 -10 -19
-120z"/>
<path d="M2855 927 c-3 -7 -4 -60 -3 -118 l3 -104 65 0 c58 0 65 2 65 20 0 16
-8 21 -43 23 -38 3 -43 6 -40 25 2 17 11 23 41 25 29 3 37 7 37 23 0 16 -7 19
-40 19 -36 0 -40 3 -40 24 0 26 16 36 62 36 23 0 29 4 26 18 -3 14 -16 18 -66
20 -45 2 -64 -1 -67 -11z"/>
<path d="M2151 804 c-32 -89 -32 -104 -2 -104 28 0 72 124 59 162 -6 15 -13
28 -18 28 -4 0 -21 -39 -39 -86z"/>
</g>
</svg>
